<?xml version="1.0" standalone="no"?><!DOCTYPE svg PUBLIC "-//W3C//DTD SVG 1.1//EN" "http://www.w3.org/Graphics/SVG/1.1/DTD/svg11.dtd"><svg t="1606459169197" class="icon" viewBox="0 0 1024 1024" version="1.1" xmlns="http://www.w3.org/2000/svg" p-id="7558" xmlns:xlink="http://www.w3.org/1999/xlink" width="48" height="48"><defs><style type="text/css"></style></defs><path d="M510.7 509.5m-400.3 0a400.3 400.3 0 1 0 800.6 0 400.3 400.3 0 1 0-800.6 0Z" fill="#1296db" p-id="7559"></path><path d="M700.6 455.7c0-15.2-12.3-27.5-27.5-27.5h-31.9v-72.6c0-71.9-58.5-130.5-130.5-130.5-71.9 0-130.5 58.5-130.5 130.5v72.6h-31.9c-15.2 0-27.5 12.3-27.5 27.5V639.4c0 58.3 47.2 105.5 105.5 105.5H595c58.3 0 105.5-47.2 105.5-105.5v-86.9-1.9-94.9zM410.2 355.5c0-55.4 45.1-100.5 100.5-100.5s100.5 45.1 100.5 100.5v72.6h-201v-72.6z" fill="#ffffff" p-id="7560"></path></svg>