<?xml version="1.0" standalone="no"?><!DOCTYPE svg PUBLIC "-//W3C//DTD SVG 1.1//EN" "http://www.w3.org/Graphics/SVG/1.1/DTD/svg11.dtd"><svg t="1606718818156" class="icon" viewBox="0 0 1065 1024" version="1.1" xmlns="http://www.w3.org/2000/svg" p-id="5190" xmlns:xlink="http://www.w3.org/1999/xlink" width="49.921875" height="48"><defs><style type="text/css"></style></defs><path d="M1019.676946 257.127753a137.397944 137.397944 0 0 1-158.261381-221.979442l37.591777-35.148311-50.936857 7.518355a181.568282 181.568282 0 0 0-79.882526 32.516887 185.891336 185.891336 0 0 0-66.349486 86.461087 260.323054 260.323054 0 0 0-166.531571-60.334802 276.675477 276.675477 0 0 0-218.9721 110.143906l-3.759178-1.69163-9.209985-4.135095-5.638767-1.315712a80.446402 80.446402 0 0 0-9.585903-2.819384L281.938326 164.088106l-10.525698-1.879589h-5.074889a145.292217 145.292217 0 0 0-15.788547-0.939795 141.53304 141.53304 0 0 0-141.34508 141.345081v5.826726A217.468429 217.468429 0 0 0 0 492.640235a202.0558 202.0558 0 0 0 201.867841 201.679882h551.471366a189.086637 189.086637 0 0 0 188.898678-187.958884 192.281938 192.281938 0 0 0-49.621145-127.812041 185.891336 185.891336 0 0 0 148.863436-98.866373l23.68282-45.861967z m-108.828194 248.293686a157.697504 157.697504 0 0 1-157.509545 157.509545H201.867841a170.290749 170.290749 0 0 1-170.290748-170.290749 187.958884 187.958884 0 0 1 100.93392-161.080764l8.834068-4.135095v-9.961821-11.84141-3.759177a109.955947 109.955947 0 0 1 109.955947-109.955947 121.985316 121.985316 0 0 1 14.472834 0h3.571219c4.135095 0 8.45815 1.69163 12.405286 2.819383h1.69163c4.511013 1.503671 8.834068 3.195301 13.157122 5.07489l3.195301 1.503671c3.759178 2.067548 7.518355 3.947137 11.089574 6.390602a109.767988 109.767988 0 0 1 50.372981 92.287812 15.600587 15.600587 0 0 0 15.600587 15.600587 15.788546 15.788546 0 0 0 15.788547-15.600587 141.157122 141.157122 0 0 0-50.185022-107.8884A248.105727 248.105727 0 0 1 535.306902 97.73862a229.497797 229.497797 0 0 1 157.321586 62.590308c4.886931 4.323054 9.397944 9.209985 14.096916 14.096916s10.525698 12.217327 15.224669 18.795889A240.77533 240.77533 0 0 1 766.496329 300.734214c0 5.07489 1.503671 10.337739 1.879589 15.600588h-32.140969a238.707783 238.707783 0 0 0-31.953011 2.631424 15.600587 15.600587 0 0 0 2.443466 31.201175h2.255506a294.71953 294.71953 0 0 1 64.845815-1.127753l8.834068 1.127753A153.374449 153.374449 0 0 1 843.935389 375.917768a162.020558 162.020558 0 0 1 66.913363 129.503671z m55.259912-187.958884a152.246696 152.246696 0 0 1-111.647577 27.066079 178.936858 178.936858 0 0 0-53.9442-24.058737 271.22467 271.22467 0 0 0-72.928047-169.162995 153.374449 153.374449 0 0 1 59.207048-84.769457 143.976505 143.976505 0 0 1 19.923642-12.029369 169.162996 169.162996 0 0 0 177.433187 248.857563 140.593245 140.593245 0 0 1-18.044053 14.284875zM798.731278 838.44699l67.214096-112.888106 8.082232 4.792952-67.232892 112.888105zM635.864905 903.292805l67.214096-112.888106 8.082232 4.811747-67.214096 112.888106zM518.898091 838.522173l67.214097-112.888105 8.082232 4.792951-67.214097 112.888106zM494.801762 987.047283l67.214097-112.888105 8.082232 4.811747-67.214097 112.888106zM340.393539 894.872247l67.214097-112.888106 8.082232 4.811747-67.232893 112.888106zM168.693098 854.818209l67.214097-112.888106 8.082232 4.811747-67.214097 112.888106zM24.340675 847.600587l67.214097-112.888105 8.082232 4.811747-67.232892 112.888106zM179.030837 1019.169457l67.214097-112.888106 8.082232 4.811747-67.232893 112.888106z" p-id="5191" fill="#1296db"></path><path d="M385.315712 600.528634m15.976505 0l262.390602 0q15.976505 0 15.976506 15.976506l0 0q0 15.976505-15.976506 15.976505l-262.390602 0q-15.976505 0-15.976505-15.976505l0 0q0-15.976505 15.976505-15.976506Z" p-id="5192" fill="#1296db"></path></svg>