<?xml version="1.0" standalone="no"?><!DOCTYPE svg PUBLIC "-//W3C//DTD SVG 1.1//EN" "http://www.w3.org/Graphics/SVG/1.1/DTD/svg11.dtd"><svg t="1606443051427" class="icon" viewBox="0 0 1024 1024" version="1.1" xmlns="http://www.w3.org/2000/svg" p-id="809" width="128" height="128" xmlns:xlink="http://www.w3.org/1999/xlink"><defs><style type="text/css"></style></defs><path d="M170.2 818.4h94.4c3.7 0 6.6 2.9 6.6 6.5V881c0 3.6-3 6.5-6.6 6.5h-81.2c-11 0-19.8-8.8-19.8-19.6v-43c0-3.6 3-6.5 6.6-6.5z m681.7 0h-92.7c-3.6 0-6.5 2.9-6.5 6.5V881c0 3.6 2.9 6.5 6.5 6.5h79.7c10.8 0 19.5-8.8 19.5-19.6v-43c0-3.6-2.9-6.5-6.5-6.5z m0 0" fill="#2CBDE6" p-id="810"></path><path d="M838.9 900.6h-79.7c-10.7 0-19.5-8.8-19.5-19.5V825c0-10.8 8.7-19.5 19.5-19.5h92.7c10.7 0 19.5 8.8 19.5 19.5v43c0 17.9-14.6 32.6-32.5 32.6z m-73.2-26h73.2c3.6 0 6.5-3 6.5-6.6v-36.6h-79.7v43.2z m-501 26h-81.2c-18.1 0-32.8-14.6-32.8-32.6v-43c0-10.8 8.8-19.5 19.6-19.5h94.4c10.8 0 19.6 8.8 19.6 19.5v56c0 10.8-8.8 19.6-19.6 19.6z m-88.1-69.2V868c0 3.7 3.1 6.6 6.8 6.6h74.8v-43.2h-81.6z" fill="#0B0E54" p-id="811"></path><path d="M634.4 204.5c53 21.2 101.7 43.8 146 67.8 69.8 37.8 95.8 176.5 101.1 528.7 0.2 13.3-11.8 23.8-25.4 23.8H693l-363-0.3H166.9c-13.6 0-25.6-10.5-25.4-23.8 5.2-352.2 31.3-490.9 101.1-528.7 44.4-24 93-46.3 146-66.9 1.5-0.6 3.1-0.6 4.5-0.1 48.8 16.8 88.3 25.2 118.4 25.4 29.8 0.1 69.2-8.5 118.2-26 1.6-0.6 3.2-0.5 4.7 0.1z m0 0" fill="#FFD45A" p-id="812"></path><path d="M259.6 444.6l-40.8 369.3 50.3-0.7zM760.3 444.6l40.8 369.3-50.3-0.7z" fill="#F2BB4C" p-id="813"></path><path d="M856.1 837.8H693l-363-0.3H166.9c-10.5 0-20.7-4.2-28-11.6-6.8-6.9-10.5-15.9-10.4-25.4 5.4-362.9 32.6-499.2 107.9-539.9 44.6-24.2 94.3-46.9 147.5-67.6 4.3-1.7 9.1-1.8 13.5-0.3 47.2 16.2 85.6 24.5 114.2 24.7h0.6c28.2 0 66.3-8.5 113.2-25.3 4.5-1.6 9.4-1.5 13.9 0.3 53.2 21.3 102.8 44.3 147.4 68.4 75.3 40.8 102.5 177 107.9 539.9 0.1 9.4-3.5 18.4-10.4 25.3-7.4 7.5-17.6 11.8-28.1 11.8zM391.2 218.1c-51.4 20-99.3 42-142.4 65.3-31.9 17.3-53.6 61-68.2 137.5-15.3 80.6-23.4 197.8-26.1 380 0 3.1 1.5 5.4 2.9 6.7 2.4 2.4 5.9 3.9 9.5 3.9H330l363 0.3h163.1c3.5 0 7.1-1.5 9.5-3.9 1.3-1.4 2.9-3.6 2.9-6.7-2.7-182.3-10.7-299.5-26.1-380-14.6-76.5-36.2-120.2-68.2-137.5-43-23.3-90.9-45.6-142.4-66.3-49.1 17.3-89.6 26.1-120.4 26-30.9-0.1-71.4-8.7-120.2-25.3z m238.4-1.6z" fill="#0B0E54" p-id="814"></path><path d="M265.5 452.2V888c0 13.4 9.2 25 22.2 28.1 74.6 17.5 149.2 24.3 223.8 24.3 74.6 0 149.2-6.8 223.8-24.3 13-3.1 22.2-14.7 22.2-28.1V452.2" fill="#FFD45A" p-id="815"></path><path d="M511.5 953.4c-81.8 0-156-8.1-226.7-24.7-19-4.5-32.3-21.2-32.3-40.7V452.2c0-7.2 5.8-13 13-13s13 5.8 13 13V888c0 7.4 5 13.7 12.2 15.4 68.8 16.1 141 24 220.8 24 79.8 0 152-7.8 220.8-24 7.2-1.7 12.2-8 12.2-15.4V452.2c0-7.2 5.8-13 13-13s13 5.8 13 13V888c0 19.5-13.3 36.3-32.3 40.7-70.7 16.6-144.9 24.7-226.7 24.7z" fill="#0B0E54" p-id="816"></path><path d="M420.8 86.6h181.4c18.9 0 34.2 15.4 34.2 34.5v70.6c0 10.2-6.2 19.4-15.7 23.2-36.4 14.4-72.8 21.7-109.2 21.7-36.4 0-72.9-7.2-109.2-21.7-9.5-3.8-15.7-13-15.7-23.2V121c0-19 15.3-34.4 34.2-34.4z m0 0" fill="#2CBDE6" p-id="817"></path><path d="M511.5 249.5c-37.9 0-76.3-7.6-114-22.6-14.5-5.8-23.9-19.6-23.9-35.3V121c0-26.2 21.2-47.5 47.2-47.5h181.4c26 0 47.2 21.3 47.2 47.5v70.6c0 15.7-9.4 29.5-23.9 35.3-37.7 15-76.1 22.6-114 22.6zM420.8 99.6c-11.7 0-21.2 9.6-21.2 21.5v70.6c0 4.9 3 9.3 7.5 11.1 34.7 13.8 69.8 20.7 104.4 20.7 34.6 0 69.7-7 104.4-20.7 4.5-1.8 7.5-6.3 7.5-11.1V121c0-11.8-9.5-21.5-21.2-21.5H420.8zM199.5 820.6h26v73.2h-26z" fill="#0B0E54" p-id="818"></path><path d="M455.4 86.6h26V228h-26zM544.8 86.6h26V228h-26zM792.6 820.6h26v73.2h-26z" fill="#0B0E54" p-id="819"></path><path d="M744.4 450.5l0.1 425.9c-0.3 18.3 1 25.1-20.2 30.1-74.6 17.6-150 20.9-224.6 20.9 0 0 196.6-34.3 204-45.2 13-19.5 40.7-431.7 40.7-431.7z" fill="#F2BB4C" p-id="820"></path><path d="M666.5 588c-41.3 0-74.9-49.8-74.9-49.8s33.5-49.8 74.9-49.8c41.3 0 74.9 49.8 74.9 49.8S707.8 588 666.5 588z" fill="#2CBDE6" p-id="821"></path><path d="M666.5 601c-47.7 0-84.1-53.2-85.6-55.5l-4.9-7.3 4.9-7.3c1.5-2.3 37.9-55.5 85.6-55.5 47.7 0 84.1 53.2 85.6 55.5l4.9 7.3-4.9 7.3c-1.5 2.3-37.9 55.5-85.6 55.5z m-58.7-62.8c11.8 14.4 35.1 36.8 58.6 36.8 23.7 0 46.9-22.3 58.6-36.7-11.8-14.4-35.1-36.8-58.6-36.8-23.6 0-46.8 22.3-58.6 36.7z" fill="#0B0E54" p-id="822"></path><path d="M510 588c-41.3 0-74.9-49.8-74.9-49.8s33.5-49.8 74.9-49.8 74.9 49.8 74.9 49.8S551.4 588 510 588z" fill="#2CBDE6" p-id="823"></path><path d="M510 601c-47.7 0-84.1-53.2-85.6-55.5l-4.9-7.3 4.9-7.3c1.5-2.3 37.9-55.5 85.6-55.5 47.7 0 84.1 53.2 85.6 55.5l4.9 7.3-4.9 7.3c-1.4 2.3-37.8 55.5-85.6 55.5z m-58.6-62.8c11.8 14.4 35.1 36.8 58.6 36.8s46.8-22.3 58.6-36.8c-11.8-14.4-35.1-36.8-58.6-36.8-23.6 0.1-46.8 22.4-58.6 36.8z" fill="#0B0E54" p-id="824"></path><path d="M360.3 588c-41.3 0-74.9-49.8-74.9-49.8s33.5-49.8 74.9-49.8 74.9 49.8 74.9 49.8-33.5 49.8-74.9 49.8z" fill="#2CBDE6" p-id="825"></path><path d="M360.3 601c-47.7 0-84.1-53.2-85.6-55.5l-4.9-7.3 4.9-7.3c1.5-2.3 37.9-55.5 85.6-55.5 47.7 0 84.1 53.2 85.6 55.5l4.9 7.3-4.9 7.3c-1.5 2.3-37.9 55.5-85.6 55.5z m-58.6-62.8c11.8 14.4 35.1 36.8 58.6 36.8 23.7 0 46.9-22.3 58.6-36.7-11.8-14.4-35.1-36.8-58.6-36.8-23.6 0-46.8 22.3-58.6 36.7z" fill="#0B0E54" p-id="826"></path><path d="M663.3 771.9c-41.3 0-74.9-49.8-74.9-49.8s33.5-49.8 74.9-49.8 74.9 49.8 74.9 49.8-33.5 49.8-74.9 49.8z" fill="#2CBDE6" p-id="827"></path><path d="M663.3 784.9c-47.7 0-84.1-53.2-85.6-55.5l-4.9-7.3 4.9-7.3c1.5-2.3 37.9-55.5 85.6-55.5 47.7 0 84.1 53.2 85.6 55.5l4.9 7.3-4.9 7.3c-1.5 2.3-37.9 55.5-85.6 55.5z m-58.6-62.8c11.8 14.4 35.1 36.8 58.6 36.8 23.7 0 46.9-22.3 58.6-36.7-11.8-14.4-35.1-36.8-58.6-36.8-23.6 0-46.8 22.3-58.6 36.7z" fill="#0B0E54" p-id="828"></path><path d="M506.9 771.9c-41.3 0-74.9-49.8-74.9-49.8s33.5-49.8 74.9-49.8 74.9 49.8 74.9 49.8-33.5 49.8-74.9 49.8z" fill="#2CBDE6" p-id="829"></path><path d="M506.9 784.9c-47.7 0-84.1-53.2-85.6-55.5l-4.9-7.3 4.9-7.3c1.5-2.3 37.9-55.5 85.6-55.5s84.1 53.2 85.6 55.5l4.9 7.3-4.9 7.3c-1.5 2.3-37.9 55.5-85.6 55.5z m-58.6-62.8c11.8 14.4 35.1 36.8 58.6 36.8 23.7 0 46.9-22.3 58.6-36.7-11.8-14.4-35.1-36.8-58.6-36.8-23.6 0-46.8 22.3-58.6 36.7z" fill="#0B0E54" p-id="830"></path><path d="M357.2 771.9c-41.3 0-74.9-49.8-74.9-49.8s33.5-49.8 74.9-49.8 74.9 49.8 74.9 49.8-33.6 49.8-74.9 49.8z" fill="#2CBDE6" p-id="831"></path><path d="M357.2 784.9c-47.7 0-84.1-53.2-85.6-55.5l-4.9-7.3 4.9-7.3c1.5-2.3 37.9-55.5 85.6-55.5s84.1 53.2 85.6 55.5l4.9 7.3-4.9 7.3c-1.5 2.3-37.9 55.5-85.6 55.5z m-58.6-62.8c11.8 14.4 35.1 36.8 58.6 36.8 23.7 0 46.9-22.3 58.6-36.7-11.8-14.4-35.1-36.8-58.6-36.8-23.7 0-46.9 22.3-58.6 36.7z" fill="#0B0E54" p-id="832"></path><path d="M272.5 286.7c-8.2 4.4-28.3 15.8-36.4 27.6-15.3 22.4-30.8 79.2-32.5 85.6-1.9 6.9 2.3 14.1 9.2 15.9 1.1 0.3 2.3 0.4 3.4 0.4 5.7 0 11-3.8 12.5-9.6 4.3-16.2 18-61.7 28.9-77.6 2.1-3.1 11.1-10.8 27.1-19.3 6.3-3.4 8.8-11.2 5.4-17.6-3.4-6.4-11.3-8.8-17.6-5.4zM352.8 264.7c-2.8-6.6-10.5-9.7-17.1-6.8l-20.3 8.7c-6.6 2.8-9.7 10.5-6.8 17.1 2.1 4.9 6.9 7.9 12 7.9 1.7 0 3.4-0.3 5.1-1l20.3-8.7c6.6-3 9.7-10.6 6.8-17.2z" fill="#FFFFFF" p-id="833"></path></svg>